<?xml version="1.0" encoding="UTF-8"?>
<svg version="1.1" xmlns="http://www.w3.org/2000/svg" width="512" height="512">
<path d="M0 0 C12.91328026 9.05546666 20.55753676 20.2449313 24.18359375 35.53125 C30.53336779 34.7045009 36.75166549 33.42585109 43.00976562 32.08007812 C57.84737363 29.00982564 72.38981445 28.12700277 87.49609375 28.15625 C88.411026 28.15579681 89.32595825 28.15534363 90.26861572 28.15487671 C109.17940132 28.18226812 127.26118535 30.02883468 145.57666016 34.9519043 C148.38929493 35.67587676 148.38929493 35.67587676 152.18359375 35.53125 C152.39113281 34.72042969 152.59867187 33.90960938 152.8125 33.07421875 C156.98803898 18.06673764 164.92648264 6.57629588 178.59375 -1.15234375 C194.05955438 -9.01354447 210.0573138 -9.28921479 226.75390625 -5.14453125 C235.10751436 -3.49854696 243.84736418 -3.89864714 252.18359375 -5.46875 C272.31010369 -9.25438583 293.56723394 -4.82395818 310.55859375 6.5859375 C315.07352027 9.93182055 319.17260987 13.60075409 323.18359375 17.53125 C323.87195313 18.18351562 324.5603125 18.83578125 325.26953125 19.5078125 C339.90358873 34.48892272 344.7741412 54.22656304 344.74047852 74.5456543 C344.53384978 82.84733796 343.14126756 90.38952775 340.98071289 98.38110352 C337.8584062 110.02085419 338.81041408 119.98816728 342.18359375 131.53125 C346.44869244 146.22729659 345.70100397 162.57392127 338.79296875 176.29296875 C332.99461084 186.50113044 325.18987194 194.85015658 314.18359375 199.53125 C313.19359375 199.53125 312.20359375 199.53125 311.18359375 199.53125 C311.43753906 200.44261719 311.69148438 201.35398438 311.953125 202.29296875 C326.87262165 257.64277374 318.55055465 319.34696445 291.18359375 369.53125 C290.57128906 370.68238281 289.95898438 371.83351563 289.328125 373.01953125 C281.26545401 387.69857966 271.30025656 401.04003227 260.18359375 413.53125 C259.51312012 414.29429443 259.51312012 414.29429443 258.82910156 415.07275391 C227.27857826 450.90497169 184.5999764 474.34226561 138.05859375 484.28125 C137.12982422 484.48016846 136.20105469 484.67908691 135.24414062 484.8840332 C119.86500915 487.98943475 104.70964306 488.91154269 89.05859375 488.84375 C88.15906982 488.84159485 87.2595459 488.8394397 86.33276367 488.83721924 C22.21091818 488.59125296 -34.10612091 463.46459155 -79.20874023 418.39013672 C-85.31304627 412.17088798 -90.6986327 405.57560223 -95.81640625 398.53125 C-96.25903809 397.92764648 -96.70166992 397.32404297 -97.15771484 396.70214844 C-119.17812946 366.4389249 -133.74752715 332.48095589 -139.81640625 295.53125 C-139.92823242 294.85078613 -140.04005859 294.17032227 -140.15527344 293.46923828 C-145.03132803 262.51321348 -143.69639819 229.63076928 -134.81640625 199.53125 C-135.59508057 199.39170898 -136.37375488 199.25216797 -137.17602539 199.10839844 C-141.72207266 198.11469934 -145.09841932 195.22563485 -148.81640625 192.53125 C-150.36328125 191.4175 -150.36328125 191.4175 -151.94140625 190.28125 C-161.31826585 181.31207995 -167.52673462 168.96036185 -168.0546875 155.94140625 C-168.25250877 146.20622957 -167.99502189 137.71455759 -164.7890625 128.44140625 C-161.10143941 117.40815646 -162.32431222 106.72403088 -165.31640625 95.78125 C-171.29468241 73.18532212 -168.97121976 50.82061211 -157.37890625 30.55859375 C-153.65167114 24.44540728 -148.95610625 19.4709018 -143.81640625 14.53125 C-143.1615625 13.86867188 -142.50671875 13.20609375 -141.83203125 12.5234375 C-126.74976558 -1.84983278 -106.14328965 -6.84040562 -85.8671875 -6.63671875 C-82.43923958 -6.54325105 -79.18878793 -6.11923675 -75.81640625 -5.46875 C-66.17273219 -3.65239404 -56.59176373 -3.60422009 -47.06640625 -5.96875 C-31.11139686 -9.77971796 -14.23802034 -8.56893701 0 0 Z " fill="#FEF599" transform="translate(167.81640625,15.46875)"/>
<path d="M0 0 C12.91328026 9.05546666 20.55753676 20.2449313 24.18359375 35.53125 C28.87287897 34.92069877 33.46795683 34.09293383 38.09545898 33.12207031 C55.11101483 29.56270223 70.42635327 28.53125 88.18359375 28.53125 C88.18359375 111.69125 88.18359375 194.85125 88.18359375 280.53125 C83.89359375 281.52125 79.60359375 282.51125 75.18359375 283.53125 C71.85734229 285.10908723 69.16231497 286.50243594 66.18359375 288.53125 C65.26320312 289.10746094 65.26320312 289.10746094 64.32421875 289.6953125 C57.72646267 294.45387109 52.56406174 304.51455638 51.18359375 312.53125 C50.0799519 323.53148355 53.02994036 333.60995846 59.4921875 342.56640625 C67.13383558 351.44342468 76.94416342 354.28336393 88.18359375 356.53125 C88.18359375 366.76125 88.18359375 376.99125 88.18359375 387.53125 C70.34228562 387.53125 56.8634442 384.36914888 41.18359375 376.53125 C40.01183594 375.94601562 38.84007812 375.36078125 37.6328125 374.7578125 C7.08123153 358.35753007 -14.35616498 329.92613585 -32.82421875 301.43359375 C-40.02502356 290.83645793 -50.89447169 282.68517137 -63.60546875 279.92578125 C-79.2644545 278.00174529 -92.53464747 279.76863988 -105.47265625 289.53515625 C-115.57482893 298.13883998 -123.82991581 310.08307344 -125.00366211 323.7043457 C-125.08434899 326.08800218 -125.0930604 328.45891769 -125.06640625 330.84375 C-125.06060547 332.0963562 -125.06060547 332.0963562 -125.0546875 333.37426758 C-124.97147783 339.31162424 -124.32760468 344.769806 -122.81640625 350.53125 C-142.1195178 331.22813845 -142.81203795 280.67889584 -142.81689453 254.94384766 C-142.61338699 236.30327067 -140.09322077 217.41748025 -134.81640625 199.53125 C-135.59508057 199.39170898 -136.37375488 199.25216797 -137.17602539 199.10839844 C-141.72207266 198.11469934 -145.09841932 195.22563485 -148.81640625 192.53125 C-150.36328125 191.4175 -150.36328125 191.4175 -151.94140625 190.28125 C-161.31826585 181.31207995 -167.52673462 168.96036185 -168.0546875 155.94140625 C-168.25250877 146.20622957 -167.99502189 137.71455759 -164.7890625 128.44140625 C-161.10143941 117.40815646 -162.32431222 106.72403088 -165.31640625 95.78125 C-171.29468241 73.18532212 -168.97121976 50.82061211 -157.37890625 30.55859375 C-153.65167114 24.44540728 -148.95610625 19.4709018 -143.81640625 14.53125 C-143.1615625 13.86867188 -142.50671875 13.20609375 -141.83203125 12.5234375 C-126.74976558 -1.84983278 -106.14328965 -6.84040562 -85.8671875 -6.63671875 C-82.43923958 -6.54325105 -79.18878793 -6.11923675 -75.81640625 -5.46875 C-66.17273219 -3.65239404 -56.59176373 -3.60422009 -47.06640625 -5.96875 C-31.11139686 -9.77971796 -14.23802034 -8.56893701 0 0 Z " fill="#FEFADD" transform="translate(167.81640625,15.46875)"/>
<path d="M0 0 C6.57513087 4.49599639 10.70510876 10.39451018 15 17 C23.9552555 30.67761586 33.20998207 43.62602193 44.53613281 55.46875 C45.52743586 56.50568341 46.51363333 57.54751769 47.49511719 58.59375 C67.47087181 79.83314661 94.7692635 98.17652176 124.8125 99.3359375 C162.00158094 99.87616412 191.27694654 84.90163516 217.66015625 59.3828125 C222.17266831 54.89437731 226.10807627 50.0273794 230 45 C231.47750179 43.24859414 232.95670667 41.49862378 234.4375 39.75 C239.81904882 33.18507395 244.36676513 26.09921448 249 19 C257.60125231 5.8377496 267.51391867 -4.01123016 282.95629883 -8.57861328 C296.53281456 -11.37792832 310.49855653 -9.20329311 322.2421875 -2.015625 C335.2854736 7.15696024 344.17724253 20.16057435 347 36 C347.25318476 38.79957556 347.28789308 41.56545279 347.25 44.375 C347.24178223 45.12177002 347.23356445 45.86854004 347.22509766 46.63793945 C346.62670318 76.27133485 323.95592485 104.7002099 305 126 C304.55301758 126.50869629 304.10603516 127.01739258 303.64550781 127.54150391 C272.09498451 163.37372169 229.41638265 186.81101561 182.875 196.75 C181.94623047 196.94891846 181.01746094 197.14783691 180.06054688 197.3527832 C164.6814154 200.45818475 149.52604931 201.38029269 133.875 201.3125 C132.52571411 201.30926727 132.52571411 201.30926727 131.14916992 201.30596924 C67.02732443 201.06000296 10.71028534 175.93334155 -34.39233398 130.85888672 C-40.49664002 124.63963798 -45.88222645 118.04435223 -51 111 C-51.44263184 110.39639648 -51.88526367 109.79279297 -52.34130859 109.17089844 C-58.2171337 101.0956005 -63.46517064 92.72193476 -68.4375 84.0625 C-68.9337085 83.19874756 -69.42991699 82.33499512 -69.94116211 81.44506836 C-78.96941379 65.44023018 -84.02799743 48.87951425 -80.2734375 30.4296875 C-79.35286277 27.50330767 -78.28918719 24.78193024 -77 22 C-76.649375 21.21625 -76.29875 20.4325 -75.9375 19.625 C-69.32671426 6.40342852 -57.47073596 -3.16157624 -43.70703125 -8.125 C-27.82376635 -11.87405304 -13.83746429 -7.93024269 0 0 Z " fill="#C40111" transform="translate(123,303)"/>
<path d="M0 0 C6.86889922 4.39950157 11.02536137 11.79459689 15.25805664 18.55932617 C22.29643626 29.73303253 30.38271053 40.02138201 39.4453125 49.61328125 C41.48700312 51.78216985 43.41832936 53.9899862 45.328125 56.2734375 C57.97448933 70.73920802 73.97783499 82.27989948 90.890625 91.2109375 C91.98503906 91.81550781 93.07945312 92.42007813 94.20703125 93.04296875 C100.8130037 96.55645815 107.40163558 99.24171165 114.515625 101.5234375 C115.64230591 101.88719482 115.64230591 101.88719482 116.79174805 102.25830078 C127.96844869 105.67075766 138.92880918 106.57543011 150.578125 106.5234375 C151.56649353 106.52020477 151.56649353 106.52020477 152.5748291 106.51690674 C163.03383561 106.46212599 172.76569273 105.90680361 182.890625 103.2109375 C183.58414063 103.02821289 184.27765625 102.84548828 184.9921875 102.65722656 C203.65635524 97.56471843 220.68670748 88.04491454 235.890625 76.2109375 C236.7465625 75.57671875 237.6025 74.9425 238.484375 74.2890625 C253.42659364 62.75957281 266.85473586 48.49232279 277.890625 33.2109375 C279.00224306 31.69634948 280.11424539 30.18204345 281.2265625 28.66796875 C286.13382647 21.95017149 290.95651166 15.21522838 295.44775391 8.20996094 C298.73837775 3.65097143 303.33577043 -0.49723585 308.890625 -1.7890625 C316.63856526 -2.80268193 322.4309172 -1.15683646 328.890625 3.2109375 C333.54554555 7.26450468 336.43791136 12.62235381 337.2109375 18.75 C338.18423192 41.7846345 316.1864834 67.24679665 301.453125 83.3359375 C299.6140004 85.30886938 297.75472264 87.26162774 295.890625 89.2109375 C295.01664062 90.13777344 294.14265625 91.06460938 293.2421875 92.01953125 C264.0667507 122.17889041 225.14558066 138.56698346 184.37231445 145.76538086 C182.67541652 146.07003789 180.98271201 146.39876979 179.29443359 146.74804688 C132.47595885 155.76367029 76.95276054 141.08379317 38.13793945 114.82299805 C29.20694287 108.56523891 20.90001173 101.60241713 12.890625 94.2109375 C12.12927246 93.50952637 12.12927246 93.50952637 11.35253906 92.79394531 C3.64664351 85.60557129 -2.85968581 77.65748714 -9.109375 69.2109375 C-9.50898437 68.67210937 -9.90859375 68.13328125 -10.3203125 67.578125 C-16.7041833 58.88063659 -22.05347521 49.72394857 -27.109375 40.2109375 C-28.04910156 38.48617187 -28.04910156 38.48617187 -29.0078125 36.7265625 C-33.01424676 28.86417039 -34.81597786 21.80738118 -32.55859375 13.08203125 C-30.00111909 6.4668873 -25.84651518 2.3794999 -19.671875 -0.83984375 C-13.4422721 -3.1474558 -6.07193856 -2.6904118 0 0 Z " fill="#F0DFD9" transform="translate(104.109375,325.7890625)"/>
<path d="M0 0 C12.63755198 8.86211159 20.84318726 20.02425141 23.93359375 35.21875 C24.01609375 35.981875 24.09859375 36.745 24.18359375 37.53125 C19.96792592 39.11941058 15.74832134 40.69121712 11.51171875 42.22265625 C-11.86031632 50.77132584 -33.26133372 62.09592589 -52.81640625 77.53125 C-53.69296875 78.21445313 -54.56953125 78.89765625 -55.47265625 79.6015625 C-77.61745551 97.25227015 -95.50415674 118.11455233 -109.81640625 142.53125 C-110.52940764 143.69434179 -111.24296614 144.85709222 -111.95703125 146.01953125 C-121.88926964 162.53903289 -128.57851305 181.03321664 -133.81640625 199.53125 C-140.14082442 198.76795815 -143.78897753 196.23376068 -148.81640625 192.53125 C-150.36328125 191.4175 -150.36328125 191.4175 -151.94140625 190.28125 C-161.31826585 181.31207995 -167.52673462 168.96036185 -168.0546875 155.94140625 C-168.25250877 146.20622957 -167.99502189 137.71455759 -164.7890625 128.44140625 C-161.10143941 117.40815646 -162.32431222 106.72403088 -165.31640625 95.78125 C-171.29468241 73.18532212 -168.97121976 50.82061211 -157.37890625 30.55859375 C-153.65167114 24.44540728 -148.95610625 19.4709018 -143.81640625 14.53125 C-143.1615625 13.86867188 -142.50671875 13.20609375 -141.83203125 12.5234375 C-126.74976558 -1.84983278 -106.14328965 -6.84040562 -85.8671875 -6.63671875 C-82.43923958 -6.54325105 -79.18878793 -6.11923675 -75.81640625 -5.46875 C-66.17273219 -3.65239404 -56.59176373 -3.60422009 -47.06640625 -5.96875 C-31.11139686 -9.77971796 -14.23802034 -8.56893701 0 0 Z " fill="#FF001E" transform="translate(167.81640625,15.46875)"/>
<path d="M0 0 C0.87881836 0.00128906 1.75763672 0.00257813 2.66308594 0.00390625 C9.02135186 0.09682939 14.77020768 1.10383979 20.9453125 2.63671875 C29.29892061 4.28270304 38.03877043 3.88260286 46.375 2.3125 C66.50150994 -1.47313583 87.75864019 2.95729182 104.75 14.3671875 C109.26492652 17.71307055 113.36401612 21.38200409 117.375 25.3125 C118.06335938 25.96476562 118.75171875 26.61703125 119.4609375 27.2890625 C134.09499498 42.27017272 138.96554745 62.00781304 138.93188477 82.3269043 C138.72525603 90.62858796 137.33267381 98.17077775 135.17211914 106.16235352 C132.04981245 117.80210419 133.00182033 127.76941728 136.375 139.3125 C140.64009869 154.00854659 139.89241022 170.35517127 132.984375 184.07421875 C127.23180643 194.20176711 119.37682552 202.78363608 108.375 207.3125 C107.055 207.3125 105.735 207.3125 104.375 207.3125 C103.91673828 205.58193359 103.91673828 205.58193359 103.44921875 203.81640625 C90.85312502 158.21018757 63.05975668 115.24648921 25.375 86.3125 C24.74480957 85.82765137 24.11461914 85.34280273 23.46533203 84.84326172 C-0.05452585 66.92257172 -25.64245955 54.57055328 -53.625 45.3125 C-50.35923691 29.85986491 -43.98779388 17.90227339 -30.7890625 8.62109375 C-21.00977121 2.70762338 -11.35322103 -0.0703258 0 0 Z " fill="#C30010" transform="translate(373.625,7.6875)"/>
<path d="M0 0 C6.57513087 4.49599639 10.70510876 10.39451018 15 17 C23.9552555 30.67761586 33.20998207 43.62602193 44.53613281 55.46875 C45.52743586 56.50568341 46.51363333 57.54751769 47.49511719 58.59375 C71.02961498 83.61701155 98.65126868 97.54651919 133 100 C133 109.9 133 119.8 133 130 C91.63821262 130.71313427 57.59095977 110.30820219 28.46875 82.40625 C13.8440353 68.1630496 2.23753152 51.80400937 -9.0703125 34.90625 C-13.42380479 28.49851243 -17.10600677 23.75422072 -25 22 C-32.4961513 21.00681907 -37.60177389 22.04349544 -43.8984375 26.28125 C-48.66961624 30.18332927 -50.28120915 34.35604293 -51.44921875 40.27734375 C-53.27521267 60.66262016 -33.66868996 84.38041281 -21.31542969 99.43505859 C15.75103902 143.53232371 65.73636319 165.19740121 122.4375 170.125 C125.923125 170.41375 129.40875 170.7025 133 171 C133 180.9 133 190.8 133 201 C73.05696904 202.31262112 16.59651972 179.50020588 -26.72460938 138.36230469 C-35.64418613 129.81398534 -43.7373673 120.9966406 -51 111 C-51.44263184 110.39639648 -51.88526367 109.79279297 -52.34130859 109.17089844 C-58.2171337 101.0956005 -63.46517064 92.72193476 -68.4375 84.0625 C-68.9337085 83.19874756 -69.42991699 82.33499512 -69.94116211 81.44506836 C-78.96941379 65.44023018 -84.02799743 48.87951425 -80.2734375 30.4296875 C-79.35286277 27.50330767 -78.28918719 24.78193024 -77 22 C-76.649375 21.21625 -76.29875 20.4325 -75.9375 19.625 C-69.32671426 6.40342852 -57.47073596 -3.16157624 -43.70703125 -8.125 C-27.82376635 -11.87405304 -13.83746429 -7.93024269 0 0 Z " fill="#FE021F" transform="translate(123,303)"/>
<path d="M0 0 C0.66386719 0.4125 1.32773438 0.825 2.01171875 1.25 C2.68589844 1.6625 3.36007813 2.075 4.0546875 2.5 C21.28398269 14.23058396 28.47385616 37.04012196 32.29614258 56.50830078 C33.87720076 65.0561659 34.77378145 73.55666771 35.01171875 82.25 C35.04426758 83.26610352 35.07681641 84.28220703 35.11035156 85.32910156 C35.94150374 114.80561972 34.01922104 153.55047616 12.63671875 176.5625 C5.36447501 184.23672706 -2.01786011 190.2203785 -12.92578125 190.625 C-23.51425968 190.23643198 -32.44849648 185.31754793 -39.61328125 177.625 C-58.98814945 153.70705926 -62.30237678 122.03164238 -62.42578125 92.375 C-62.43222656 91.51771301 -62.43867187 90.66042603 -62.4453125 89.77716064 C-62.57643938 61.2645773 -57.5928967 28.30002982 -36.8671875 7.078125 C-26.67548141 -2.60134629 -13.26609769 -7.062174 0 0 Z " fill="#152D64" transform="translate(173.98828125,103.75)"/>
<path d="M0 0 C15.95752147 8.56386985 24.04605336 24.57939424 29.25 41.28125 C32.97039076 54.40227097 35.46299755 67.41680045 35.58203125 81.07421875 C35.59187042 81.99996704 35.60170959 82.92571533 35.61184692 83.8795166 C35.89151153 116.98875631 35.10334135 154.50489737 10.67578125 180.09765625 C2.62212844 187.55774001 -5.17099365 190.8794376 -16.203125 190.703125 C-22.09658003 189.94310931 -26.6926457 187.41047107 -31.65625 184.2578125 C-32.31238281 183.84789062 -32.96851563 183.43796875 -33.64453125 183.015625 C-44.09415363 175.28050223 -49.50920784 161.10842165 -53.65625 149.2578125 C-54.11451172 147.96810547 -54.11451172 147.96810547 -54.58203125 146.65234375 C-67.37586257 107.48353711 -65.18700821 59.05041897 -47.06640625 22.0078125 C-37.63777784 4.61476622 -20.02302605 -9.06105293 0 0 Z " fill="#021036" transform="translate(363.65625,100.7421875)"/>
<path d="M0 0 C6.86889922 4.39950157 11.02536137 11.79459689 15.25805664 18.55932617 C22.29643626 29.73303253 30.38271053 40.02138201 39.4453125 49.61328125 C41.48700312 51.78216985 43.41832936 53.9899862 45.328125 56.2734375 C57.97448933 70.73920802 73.97783499 82.27989948 90.890625 91.2109375 C91.98503906 91.81550781 93.07945312 92.42007813 94.20703125 93.04296875 C112.61135265 102.83159392 131.33753738 105.60420444 151.890625 108.2109375 C151.890625 121.0809375 151.890625 133.9509375 151.890625 147.2109375 C99.21787575 148.1744634 51.71417417 130.03933268 12.890625 94.2109375 C12.12927246 93.50952637 12.12927246 93.50952637 11.35253906 92.79394531 C3.64664351 85.60557129 -2.85968581 77.65748714 -9.109375 69.2109375 C-9.50898437 68.67210937 -9.90859375 68.13328125 -10.3203125 67.578125 C-16.7041833 58.88063659 -22.05347521 49.72394857 -27.109375 40.2109375 C-28.04910156 38.48617187 -28.04910156 38.48617187 -29.0078125 36.7265625 C-33.01424676 28.86417039 -34.81597786 21.80738118 -32.55859375 13.08203125 C-30.00111909 6.4668873 -25.84651518 2.3794999 -19.671875 -0.83984375 C-13.4422721 -3.1474558 -6.07193856 -2.6904118 0 0 Z " fill="#FEF2F2" transform="translate(104.109375,325.7890625)"/>
<path d="M0 0 C8.82734435 6.59975432 14.53223323 14.84598006 16.75 25.75 C17.83939467 36.00021349 15.70498089 46.22551451 9.5625 54.625 C1.60667481 63.79185989 -7.00947329 68.53874177 -19.140625 70.12890625 C-30.50088889 70.63200365 -40.59779137 65.64455389 -48.96484375 58.23046875 C-56.40155894 50.45314066 -59.65372192 39.29946203 -59.52734375 28.75390625 C-58.6612142 19.37286924 -53.9747491 10.25188358 -47.1796875 3.77734375 C-33.21891855 -7.67826979 -15.46897479 -10.27416983 0 0 Z " fill="#FE021F" transform="translate(277.25,302.25)"/>
<path d="M0 0 C6.35186358 2.55440536 8.72440412 9.16215749 11.390625 15.09375 C23.60570369 45.4106923 24.13235124 85.82546125 12.03515625 116.44189453 C6.35907277 129.2907269 6.35907277 129.2907269 2 133 C-2.85783583 131.09156449 -5.19607437 127.53750776 -7.5625 123.01171875 C-11.38165394 114.17992526 -14.08495548 105.42920043 -16 96 C-16.226875 94.91332031 -16.45375 93.82664062 -16.6875 92.70703125 C-21.40588396 64.7571596 -20.15637419 29.46739439 -4.39453125 4.84765625 C-3.04783966 3.0633842 -1.62621511 1.53027321 0 0 Z " fill="#FBF1F1" transform="translate(350,128)"/>
<path d="M0 0 C1.90625 0.0703125 1.90625 0.0703125 4 1 C18.20029088 17.87841592 20.42815868 43.48663631 20.3125 64.5625 C20.31067719 65.25666016 20.30885437 65.95082031 20.30697632 66.66601562 C20.21428018 87.74880215 18.40866374 111.10163947 6 129 C3.125 131.6875 3.125 131.6875 1 133 C-13.29239246 119.76473716 -16.64465829 96.34226985 -17.37339783 77.76782227 C-17.89262142 60.15121049 -18.41146595 41.96176897 -13 25 C-12.61457031 23.77410156 -12.22914063 22.54820312 -11.83203125 21.28515625 C-9.16932471 13.76236399 -5.71753484 5.71753484 0 0 Z " fill="#FCFCFD" transform="translate(159,131)"/>
<path d="M0 0 C12.95536394 0 18.81344643 2.20845475 28.02734375 10.90234375 C34.71369852 18.01238832 38.01290063 26.57502111 38.4375 36.3125 C38.02665804 48.4152194 33.49585799 57.60583842 25.00390625 65.96484375 C17.91065901 72.12100144 9.34491678 75 0 75 C0 50.25 0 25.5 0 0 Z " fill="#C30110" transform="translate(256,297)"/>
<path d="M0 0 C0 3.57600197 -0.52306358 3.93170846 -2.89453125 6.44140625 C-3.51473145 7.10253418 -4.13493164 7.76366211 -4.77392578 8.44482422 C-5.78302002 9.49307373 -5.78302002 9.49307373 -6.8125 10.5625 C-7.49812012 11.28195801 -8.18374023 12.00141602 -8.89013672 12.74267578 C-29.91622913 34.6233676 -54.88094622 51.810121 -82.8125 63.625 C-83.86945068 64.07552734 -84.92640137 64.52605469 -86.01538086 64.99023438 C-87.5024353 65.6022168 -87.5024353 65.6022168 -89.01953125 66.2265625 C-89.90745361 66.59346191 -90.79537598 66.96036133 -91.71020508 67.33837891 C-94 68 -94 68 -97 67 C-96.46334717 66.77973145 -95.92669434 66.55946289 -95.3737793 66.33251953 C-68.08645407 55.06299037 -43.21007434 41.32357504 -21.40625 21.21875 C-18.90977261 18.91680332 -16.36229931 16.68009458 -13.8125 14.4375 C-10.03881183 11.05009487 -6.63624439 7.50947349 -3.375 3.62890625 C-2 2 -2 2 0 0 Z " fill="#FA001C" transform="translate(431,423)"/>
</svg>
